Simulation
nRows=24
nColumns=15
endheader
time  TH_x TH_y TH_z SC_y  SC_z  SC_x  AC_y  AC_z  AC_x  GH_y  GH_z  GH_yy  EL_x  PS_y
0.0  0.000000  0.000000  0.000000  -40.97484877243665  6.293857566463187  5.290427962726946  44.25663247643694  7.111011252472506  -0.008923207157611886  175.1921179268175  6.649126657065133  -149.9821320338812  22.653781037694877  120.000000
0.05745  0.000000  0.000000  0.000000  -38.989501425575284  5.916739272430626  3.236790537186313  43.3690789796265  7.234347714207761  0.18745753669338933  169.96148147473406  3.550087671520794  -145.864910098075  22.070746909099594  120.000000
0.1149  0.000000  0.000000  0.000000  -37.1615197574338  5.393146706246192  1.1753373859595906  42.56722154509867  7.168409351931818  0.4120386058473297  125.71589544315513  0.9030088372533576  -102.71952709217436  21.667035045067866  120.000000
0.17235  0.000000  0.000000  0.000000  -35.59980576283699  4.777434100681234  -0.7914268071210961  41.89309393394552  6.9692547030822825  0.6786307746533311  22.240236056029616  2.504438101951337  -0.34197725740012813  21.523425317066792  120.000000
0.2298  0.000000  0.000000  0.000000  -34.35776673462722  4.143104974326114  -2.591265690693073  41.37212017636776  6.725903082277062  0.9986897052302848  13.680552894604563  5.2472543583851925  7.111639892951704  21.648477320370656  120.000000
0.28725  0.000000  0.000000  0.000000  -33.448484425354756  3.5685557856499424  -4.183073027050343  40.996186728537246  6.5382824607086185  1.3847092801405616  11.093962044449357  8.03234291619991  8.561693768595488  21.978591012029284  120.000000
0.3447  0.000000  0.000000  0.000000  -32.86920868136342  3.1297424869385724  -5.536158245412413  40.735869950463524  6.479426914802358  1.8342911989920017  9.496226536007102  10.883781827945917  8.961553202043696  22.41418443634743  120.000000
0.40215  0.000000  0.000000  0.000000  -32.618534762013866  2.880074066946218  -6.615039484981788  40.558854238032374  6.5759180746883095  2.319207568929406  8.106331355853355  13.853783861534259  9.061626935261051  22.844821807507746  120.000000
0.4596  0.000000  0.000000  0.000000  -32.69202149484174  2.849345246983669  -7.380009564499793  40.44079989865268  6.8074251726007535  2.7959075914723384  6.801967651784922  16.986089691800004  8.96770973853661  23.177578288250377  120.000000
0.51705  0.000000  0.000000  0.000000  -33.07855086695214  3.047566164429343  -7.791400694231539  40.36773255023967  7.116581422182146  3.2216188434877218  5.6138252605491825  20.298070744618855  8.654505001699656  23.35138714947113  120.000000
0.5745  0.000000  0.000000  0.000000  -33.75486757693129  3.4739604948391865  -7.829178184365404  40.339104601543816  7.432809019296985  3.574087988468824  4.614512959171021  23.770700873141063  8.0775398032791  23.34507490060097  120.000000
0.63195  0.000000  0.000000  0.000000  -34.691836006543475  4.111548610667561  -7.536374919384096  40.36352215742989  7.716877134942132  3.888374746011517  3.887016823768967  27.35847206748093  7.19341765287045  23.168953360772168  120.000000
0.6894  0.000000  0.000000  0.000000  -35.86140890443319  4.924657298874756  -6.999460349954765  40.46193478983058  7.9588850078843265  4.231990779676656  3.5100608243819886  31.00738690831061  5.958801678169622  22.852716451095844  120.000000
0.74685  0.000000  0.000000  0.000000  -37.238026026128885  5.862107172846165  -6.2923990458690495  40.66283195225768  8.154818221931205  4.6542109083707235  3.5271721379915406  34.66418932392475  4.346968830725483  22.432994149851954  120.000000
0.8043  0.000000  0.000000  0.000000  -38.7909034085908  6.872778552226138  -5.468715319188681  40.988438022177206  8.311441110474016  5.179951029098669  3.9305723141715028  38.27538177273616  2.3592603464732633  21.947216024271846  120.000000
0.86175  0.000000  0.000000  0.000000  -40.476507036531714  7.909209916830002  -4.56127590298375  41.445187718137205  8.453493358053256  5.81006744952169  4.658567357070658  41.78695736545816  0.0337054521345065  21.430795779155666  120.000000
0.9192  0.000000  0.000000  0.000000  -42.23297328689671  8.925059386798095  -3.586201176071506  42.01578923302797  8.622016786949334  6.522778263822012  5.6040511553358145  45.14204042671782  -2.548897457175079  20.913808809699777  120.000000
0.97665  0.000000  0.000000  0.000000  -43.98231575362228  9.883598604189356  -2.54968883348177  42.65915077083556  8.859244029006845  7.284121905384574  6.641317514340739  48.28523413648941  -5.271884865594952  20.41632261537195  120.000000
1.0341  0.000000  0.000000  0.000000  -45.64047221491593  10.767875107796904  -1.4519967232967823  43.31922339565871  9.190657787485533  8.05755730866488  7.66033732287228  51.172225442632154  -7.997095667491959  19.948926866743196  120.000000
1.09155  0.000000  0.000000  0.000000  -47.135624554254576  11.579846735154264  -0.29190551931780606  43.937162912476886  9.614820778864278  8.807709483090342  8.581719825749778  53.778628768881255  -10.577547167752925  19.513122489869833  120.000000
1.149  0.000000  0.000000  0.000000  -48.42841886546672  12.326154170536238  0.9271199682059184  44.46325396798925  10.104247388142285  9.503214553783629  9.357581810266748  56.097105691712486  -12.875343486108182  19.105410736975866  120.000000
1.20645  0.000000  0.000000  0.000000  -49.512331816471  13.005726557121568  2.1899038881019393  44.87221422612949  10.616437972294056  10.11794731132666  9.96794819327506  58.13024306679121  -14.787881207845201  18.72101318571207  120.000000
1.2639  0.000000  0.000000  0.000000  -50.4025271066813  13.606733603160581  3.4648044964972047  45.168342069108874  11.105997805056846  10.633396670023043  10.421164121227752  59.88698571905405  -16.273132776472945  18.359447431181188  120.000000
1.32135  0.000000  0.000000  0.000000  -51.11893548816926  14.108791934084508  4.700315627017385  45.37618423424412  11.534454845582365  11.038320770736798  10.744175223670323  61.38033474960116  -17.354995132343973  18.025781819827426  120.000000
